<svg xmlns="http://www.w3.org/2000/svg" xmlns:xlink="http://www.w3.org/1999/xlink" width="35.375" height="35.375" viewBox="0 0 35.375 35.375">
  <defs>
    <clipPath id="clip-path">
      <rect width="35.375" height="35.375" fill="none"/>
    </clipPath>
  </defs>
  <g id="sluit_modal" data-name="sluit modal" transform="translate(0 0)" clip-path="url(#clip-path)">
    <path id="Path_46" data-name="Path 46" d="M31.543,31.543a2.756,2.756,0,0,1,3.9,0L48.424,44.528,61.409,31.543a2.755,2.755,0,0,1,3.9,3.9L52.32,48.424,65.305,61.409a2.755,2.755,0,0,1-3.9,3.9L48.424,52.32,35.439,65.305a2.755,2.755,0,0,1-3.9-3.9L44.528,48.424,31.543,35.439a2.756,2.756,0,0,1,0-3.9Z" transform="translate(-30.737 -30.737)" fill="#119100"/>
  </g>
</svg>
